<?xml version="1.0" encoding="UTF-8" standalone="no"?><!DOCTYPE svg PUBLIC "-//W3C//DTD SVG 1.1//EN" "http://www.w3.org/Graphics/SVG/1.1/DTD/svg11.dtd"><svg width="100%" height="100%" viewBox="0 0 256 76" version="1.1" xmlns="http://www.w3.org/2000/svg" xmlns:xlink="http://www.w3.org/1999/xlink" xml:space="preserve" xmlns:serif="http://www.serif.com/" style="fill-rule:evenodd;clip-rule:evenodd;"><g id="layer-stack-logo"><path id="path7" d="M9.035,26.284l18.345,-8.077c2.281,-1.003 4.517,-1.003 6.708,0l17.523,8.077c1.642,0.731 2.464,1.963 2.464,3.697c-0,1.643 -0.822,2.829 -2.464,3.559l-17.523,7.119c-2.191,0.912 -4.427,0.912 -6.708,-0l-18.345,-7.119c-1.642,-0.73 -2.464,-1.916 -2.464,-3.559c0,-1.734 0.822,-2.966 2.464,-3.697Z" style="fill:url(#_Linear1);fill-rule:nonzero;"/><path id="path8" d="M6.571,32.171c0,1.643 0.822,2.829 2.464,3.559l18.345,8.077c2.281,1.004 4.517,1.004 6.708,0l17.523,-8.077c1.642,-0.73 2.464,-1.916 2.464,-3.559l-0,-2.19c-0,1.643 -0.822,2.829 -2.464,3.559l-17.523,7.119c-2.191,0.912 -4.427,0.912 -6.708,-0l-18.345,-7.119c-1.642,-0.73 -2.464,-1.916 -2.464,-3.559l0,2.19Z" style="fill:#0c7fe8;fill-opacity:0.72;fill-rule:nonzero;"/><path id="path9" d="M9.035,39.016l18.345,8.077c2.281,1.004 4.517,1.004 6.708,0l17.523,-8.077c1.642,-0.73 2.464,-0.228 2.464,1.506c-0,1.825 -0.822,3.149 -2.464,3.97l-17.523,8.488c-2.191,1.004 -4.427,1.004 -6.708,-0l-18.345,-8.488c-1.642,-0.821 -2.464,-2.145 -2.464,-3.97c0,-1.734 0.822,-2.236 2.464,-1.506Z" style="fill:url(#_Linear2);fill-rule:nonzero;"/><path id="path10" d="M9.035,48.736l18.345,8.077c2.281,1.004 4.517,1.004 6.708,-0l17.523,-8.077c1.642,-0.73 2.464,-0.228 2.464,1.506c-0,1.916 -0.822,3.285 -2.464,4.107l-17.523,8.898c-2.191,1.004 -4.427,1.004 -6.708,0l-18.345,-8.898c-1.642,-0.822 -2.464,-2.191 -2.464,-4.107c0,-1.734 0.822,-2.236 2.464,-1.506Z" style="fill:#f8fafc;fill-rule:nonzero;"/></g><g id="wordmark"><path id="text10" d="M83.471,51.275l-0,4.443l-15.677,-0l0,-26.419l5.463,-0l-0,21.976l10.214,0Zm11.769,-3.405c-1.226,0.061 -2.245,0.17 -3.059,0.328c-0.813,0.146 -1.462,0.34 -1.948,0.583c-0.473,0.242 -0.813,0.522 -1.019,0.837c-0.195,0.304 -0.292,0.637 -0.292,1.002c0,0.728 0.201,1.244 0.601,1.547c0.413,0.304 0.983,0.455 1.712,0.455c0.837,0 1.559,-0.145 2.166,-0.437c0.619,-0.303 1.232,-0.77 1.839,-1.402l0,-2.913Zm-10.232,-8.321c1.104,-0.995 2.324,-1.735 3.659,-2.221c1.336,-0.498 2.78,-0.746 4.334,-0.746c1.117,-0 2.112,0.182 2.986,0.546c0.886,0.364 1.632,0.874 2.239,1.529c0.619,0.644 1.093,1.414 1.421,2.313c0.327,0.898 0.491,1.881 0.491,2.949l0,11.799l-2.294,-0c-0.473,-0 -0.838,-0.067 -1.092,-0.201c-0.243,-0.133 -0.443,-0.412 -0.601,-0.837l-0.401,-1.202c-0.473,0.413 -0.935,0.777 -1.384,1.093c-0.437,0.315 -0.892,0.582 -1.365,0.801c-0.474,0.206 -0.983,0.364 -1.53,0.473c-0.534,0.109 -1.135,0.164 -1.802,0.164c-0.826,-0 -1.578,-0.109 -2.258,-0.328c-0.68,-0.218 -1.268,-0.54 -1.766,-0.965c-0.486,-0.437 -0.862,-0.977 -1.129,-1.62c-0.267,-0.644 -0.4,-1.384 -0.4,-2.222c-0,-0.691 0.176,-1.383 0.528,-2.075c0.352,-0.692 0.952,-1.317 1.802,-1.876c0.862,-0.57 2.003,-1.037 3.423,-1.402c1.432,-0.376 3.223,-0.588 5.371,-0.637l0,-0.965c0,-1.177 -0.249,-2.039 -0.746,-2.585c-0.498,-0.559 -1.214,-0.838 -2.149,-0.838c-0.692,0 -1.268,0.085 -1.729,0.255c-0.462,0.158 -0.868,0.334 -1.22,0.528c-0.34,0.182 -0.662,0.358 -0.965,0.528c-0.304,0.158 -0.656,0.237 -1.056,0.237c-0.352,-0 -0.65,-0.085 -0.892,-0.255c-0.231,-0.182 -0.425,-0.395 -0.583,-0.637l-0.892,-1.603Zm35.22,-2.603l-10.123,23.815c-0.158,0.34 -0.352,0.595 -0.583,0.765c-0.218,0.17 -0.57,0.255 -1.056,0.255l-3.732,-0l3.55,-7.575l-7.538,-17.26l4.407,-0c0.4,-0 0.71,0.091 0.928,0.273c0.219,0.182 0.376,0.394 0.474,0.637l3.568,8.976c0.134,0.352 0.249,0.71 0.346,1.075c0.109,0.352 0.213,0.704 0.31,1.056c0.218,-0.716 0.467,-1.433 0.746,-2.149l3.314,-8.958c0.097,-0.267 0.273,-0.485 0.528,-0.655c0.255,-0.17 0.534,-0.255 0.838,-0.255l4.023,-0Zm12.571,7.173c-0,-0.521 -0.073,-1.019 -0.219,-1.493c-0.133,-0.473 -0.352,-0.892 -0.655,-1.256c-0.303,-0.364 -0.686,-0.649 -1.147,-0.856c-0.461,-0.218 -1.014,-0.327 -1.657,-0.327c-1.202,-0 -2.142,0.34 -2.822,1.019c-0.68,0.68 -1.123,1.651 -1.329,2.913l7.829,0Zm-7.902,2.987c0.158,1.76 0.655,3.046 1.493,3.859c0.85,0.814 1.954,1.22 3.314,1.22c0.692,0 1.286,-0.079 1.784,-0.236c0.51,-0.17 0.953,-0.352 1.329,-0.547c0.389,-0.206 0.735,-0.388 1.038,-0.546c0.316,-0.17 0.625,-0.255 0.929,-0.255c0.388,0 0.691,0.146 0.91,0.437l1.457,1.821c-0.535,0.619 -1.123,1.135 -1.767,1.548c-0.643,0.4 -1.311,0.722 -2.002,0.965c-0.692,0.23 -1.39,0.388 -2.094,0.473c-0.704,0.097 -1.384,0.146 -2.04,0.146c-1.31,-0 -2.536,-0.213 -3.677,-0.638c-1.129,-0.436 -2.119,-1.074 -2.968,-1.911c-0.838,-0.85 -1.499,-1.9 -1.985,-3.15c-0.485,-1.25 -0.728,-2.701 -0.728,-4.352c-0,-1.274 0.206,-2.476 0.619,-3.605c0.425,-1.129 1.032,-2.112 1.821,-2.949c0.789,-0.838 1.748,-1.5 2.876,-1.985c1.129,-0.498 2.404,-0.747 3.824,-0.747c1.202,0 2.306,0.195 3.314,0.583c1.019,0.376 1.893,0.929 2.622,1.657c0.74,0.728 1.311,1.626 1.711,2.695c0.413,1.056 0.619,2.263 0.619,3.623c0,0.376 -0.018,0.686 -0.054,0.929c-0.037,0.242 -0.098,0.436 -0.183,0.582c-0.084,0.146 -0.2,0.249 -0.345,0.31c-0.146,0.048 -0.334,0.073 -0.565,0.073l-11.252,-0Zm19.544,-7.065c0.595,-1.068 1.28,-1.912 2.057,-2.531c0.777,-0.619 1.688,-0.928 2.731,-0.928c0.85,-0 1.542,0.2 2.076,0.6l-0.328,3.715c-0.06,0.243 -0.157,0.412 -0.291,0.51c-0.121,0.085 -0.291,0.127 -0.51,0.127c-0.194,0 -0.473,-0.024 -0.837,-0.073c-0.364,-0.061 -0.704,-0.091 -1.02,-0.091c-0.461,0 -0.874,0.067 -1.238,0.2c-0.352,0.134 -0.668,0.322 -0.947,0.565c-0.279,0.243 -0.534,0.54 -0.765,0.892c-0.218,0.352 -0.424,0.753 -0.619,1.202l0,11.489l-5.025,-0l0,-18.772l2.968,-0c0.51,-0 0.862,0.091 1.056,0.273c0.194,0.182 0.334,0.498 0.419,0.947l0.273,1.875Zm24.387,11.234l0,4.443l-15.676,-0l-0,-26.419l5.462,-0l-0,21.976l10.214,0Z" style="fill:#f8fafc;fill-rule:nonzero;"/><path id="text11" d="M214.729,36.946l-0,18.772l-3.095,-0c-0.644,-0 -1.056,-0.292 -1.239,-0.874l-0.327,-1.311c-0.377,0.364 -0.765,0.698 -1.166,1.001c-0.4,0.304 -0.831,0.565 -1.292,0.783c-0.449,0.219 -0.941,0.389 -1.475,0.51c-0.522,0.121 -1.093,0.182 -1.712,0.182c-1.019,-0 -1.93,-0.176 -2.731,-0.528c-0.789,-0.352 -1.45,-0.844 -1.984,-1.475c-0.534,-0.631 -0.941,-1.384 -1.22,-2.258c-0.279,-0.874 -0.419,-1.832 -0.419,-2.876l-0,-11.926l5.025,-0l0,11.926c0,1.044 0.237,1.857 0.71,2.439c0.486,0.571 1.202,0.856 2.149,0.856c0.704,0 1.365,-0.152 1.984,-0.455c0.619,-0.316 1.208,-0.74 1.767,-1.275l-0,-13.491l5.025,-0Zm7.671,13.819c0.473,0.546 0.983,0.929 1.529,1.147c0.558,0.219 1.153,0.328 1.784,0.328c0.607,0 1.159,-0.115 1.657,-0.346c0.498,-0.231 0.923,-0.589 1.275,-1.074c0.364,-0.498 0.643,-1.129 0.837,-1.894c0.194,-0.764 0.292,-1.675 0.292,-2.731c-0,-1.044 -0.085,-1.93 -0.255,-2.658c-0.158,-0.728 -0.389,-1.317 -0.692,-1.766c-0.292,-0.449 -0.65,-0.771 -1.074,-0.965c-0.425,-0.207 -0.899,-0.31 -1.421,-0.31c-0.886,0 -1.632,0.176 -2.239,0.528c-0.595,0.34 -1.159,0.844 -1.693,1.511l-0,8.23Zm-0.292,-11.361c0.376,-0.413 0.777,-0.789 1.202,-1.129c0.425,-0.352 0.88,-0.65 1.365,-0.892c0.486,-0.255 1.008,-0.449 1.566,-0.583c0.559,-0.146 1.166,-0.218 1.821,-0.218c1.008,-0 1.93,0.218 2.768,0.655c0.849,0.425 1.578,1.05 2.184,1.875c0.607,0.814 1.081,1.815 1.421,3.005c0.34,1.189 0.509,2.549 0.509,4.078c0,1.408 -0.194,2.713 -0.582,3.915c-0.376,1.189 -0.917,2.221 -1.621,3.095c-0.704,0.874 -1.553,1.56 -2.549,2.057c-0.983,0.486 -2.081,0.729 -3.295,0.729c-1.02,-0 -1.888,-0.152 -2.604,-0.455c-0.704,-0.304 -1.335,-0.717 -1.893,-1.239l-0,7.484l-5.026,-0l0,-24.835l3.096,-0c0.631,-0 1.049,0.291 1.256,0.874l0.382,1.584Zm26.461,4.715c-0,-0.521 -0.073,-1.019 -0.219,-1.493c-0.133,-0.473 -0.352,-0.892 -0.655,-1.256c-0.303,-0.364 -0.686,-0.649 -1.147,-0.856c-0.461,-0.218 -1.014,-0.327 -1.657,-0.327c-1.202,-0 -2.142,0.34 -2.822,1.019c-0.68,0.68 -1.123,1.651 -1.329,2.913l7.829,0Zm-7.902,2.987c0.158,1.76 0.655,3.046 1.493,3.859c0.85,0.814 1.954,1.22 3.314,1.22c0.692,0 1.286,-0.079 1.784,-0.236c0.51,-0.17 0.953,-0.352 1.329,-0.547c0.389,-0.206 0.735,-0.388 1.038,-0.546c0.316,-0.17 0.625,-0.255 0.929,-0.255c0.388,0 0.691,0.146 0.91,0.437l1.457,1.821c-0.535,0.619 -1.123,1.135 -1.767,1.548c-0.643,0.4 -1.31,0.722 -2.002,0.965c-0.692,0.23 -1.39,0.388 -2.094,0.473c-0.704,0.097 -1.384,0.146 -2.039,0.146c-1.311,-0 -2.537,-0.213 -3.678,-0.638c-1.129,-0.436 -2.119,-1.074 -2.968,-1.911c-0.838,-0.85 -1.499,-1.9 -1.985,-3.15c-0.485,-1.25 -0.728,-2.701 -0.728,-4.352c-0,-1.274 0.206,-2.476 0.619,-3.605c0.425,-1.129 1.032,-2.112 1.821,-2.949c0.789,-0.838 1.748,-1.5 2.876,-1.985c1.129,-0.498 2.404,-0.747 3.824,-0.747c1.202,0 2.306,0.195 3.314,0.583c1.019,0.376 1.893,0.929 2.622,1.657c0.74,0.728 1.311,1.626 1.711,2.695c0.413,1.056 0.619,2.263 0.619,3.623c0,0.376 -0.018,0.686 -0.054,0.929c-0.037,0.242 -0.098,0.436 -0.182,0.582c-0.085,0.146 -0.201,0.249 -0.346,0.31c-0.146,0.048 -0.334,0.073 -0.565,0.073l-11.252,-0Z" style="fill:#f8fafc;fill-rule:nonzero;"/></g><g id="loupe-o"><circle id="circle11" cx="181.39" cy="43.807" r="11.91" style="fill:none;stroke:#0ea5e9;stroke-width:3.83px;"/><path id="path11" d="M189.878,52.295l9.583,9.583" style="fill:none;fill-rule:nonzero;stroke:#0ea5e9;stroke-width:3.83px;stroke-linecap:round;"/><path id="path12" d="M176.084,40.286l4.578,-2.08c0.486,-0.208 0.971,-0.208 1.457,-0l4.578,2.08c0.624,0.278 0.936,0.694 0.936,1.249c-0,0.555 -0.312,0.971 -0.936,1.248l-4.578,2.081c-0.486,0.208 -0.971,0.208 -1.457,0l-4.578,-2.081c-0.624,-0.277 -0.936,-0.693 -0.936,-1.248c-0,-0.555 0.312,-0.971 0.936,-1.249Z" style="fill:#f8fafc;fill-rule:nonzero;"/><path id="path13" d="M176.188,44.755l4.474,2.081c0.486,0.208 0.971,0.208 1.457,-0l4.474,-2.081" style="fill:none;fill-rule:nonzero;stroke:#bae6fd;stroke-width:1.46px;stroke-linecap:round;stroke-linejoin:round;"/><path id="path14" d="M176.188,47.599l4.474,2.081c0.486,0.208 0.971,0.208 1.457,0l4.474,-2.081" style="fill:none;fill-rule:nonzero;stroke:#38bdf8;stroke-width:1.46px;stroke-linecap:round;stroke-linejoin:round;"/></g><defs><linearGradient id="_Linear1" x1="0" y1="0" x2="1" y2="0" gradientUnits="userSpaceOnUse" gradientTransform="matrix(47.5037,23.8888,-23.8888,47.5037,6.57112,17.4545)"><stop offset="0" style="stop-color:#38bdf8;stop-opacity:1"/><stop offset="0.45" style="stop-color:#1297ee;stop-opacity:1"/><stop offset="1" style="stop-color:#2563eb;stop-opacity:1"/></linearGradient><linearGradient id="_Linear2" x1="0" y1="0" x2="1" y2="0" gradientUnits="userSpaceOnUse" gradientTransform="matrix(47.5037,15.0411,-15.0411,47.5037,6.57112,38.6915)"><stop offset="0" style="stop-color:#0ea5e9;stop-opacity:1"/><stop offset="1" style="stop-color:#0b63ce;stop-opacity:1"/></linearGradient></defs></svg>
